<?xml version="1.0" encoding="utf-8"?>
<!-- Generator: Adobe Illustrator 24.0.1, SVG Export Plug-In . SVG Version: 6.00 Build 0)  -->
<svg version="1.1" id="图层_1" xmlns="http://www.w3.org/2000/svg" xmlns:xlink="http://www.w3.org/1999/xlink" x="0px" y="0px"
	 viewBox="110 335 900 465" xml:space="preserve">
<style type="text/css">
	.st0{fill:#FFFFFF;}
</style>
<g>
	<g>
		<path class="st0" d="M122.86,789.47V705.6h14.59v83.87H122.86z M190.07,789.47v-36.31h-42.05v-12.98h42.05V705.6h14.59v83.87
			H190.07z"/>
		<path class="st0" d="M257.73,789.12v-31.71l-44.35-51.82h19.65l32.51,38.49l32.63-38.49h18.61l-44.46,51.82v31.71H257.73z"/>
		<path class="st0" d="M350.67,765.92v-14.13h33.55c10.23,0,16.31-6.43,16.31-15.85c0-9.65-6.09-15.74-16.31-15.74h-44.23v68.93
			h-14.48V705.6h58.71c19.3,0,30.56,11.6,30.56,29.87c0,18.04-11.26,30.45-30.56,30.45H350.67z"/>
		<path class="st0" d="M425.11,789.12V705.6h74.56v14.59h-60.09v54.34h60.2v14.59H425.11z M450.27,752.82v-12.29h46.3v12.29H450.27z
			"/>
		<path class="st0" d="M589.85,789.12l-21.14-23.21h-31.25v-12.87h34.81c10.46,0,15.97-5.97,15.97-16.77
			c0-10.8-5.97-16.08-15.97-16.08h-45.5v68.93H512.3V705.6h59.97c19.07,0,30.33,11.83,30.33,30.45c0,13.79-6.43,23.55-17.23,27.69
			l25.16,25.39H589.85z"/>
		<path class="st0" d="M618.11,789.12V705.6h14.59v68.93h56.18v14.59H618.11z"/>
		<path class="st0" d="M737.47,789.12c-23.32,0-40.56-18.38-40.56-42.62c0-24.59,17.23-40.9,40.56-40.9h20.33
			c24.13,0,40.9,16.66,40.9,40.9c0,24.24-17.12,42.62-40.9,42.62H737.47z M757.8,774.53c15.4,0,26.31-11.6,26.31-27.34
			c0-15.74-10.92-27-26.31-27h-20.33c-14.93,0-25.97,11.14-25.97,27c0,15.74,10.91,27.34,25.97,27.34H757.8z"/>
		<path class="st0" d="M848.67,789.12c-23.32,0-40.56-18.38-40.56-42.62c0-24.59,17.23-40.9,40.56-40.9h20.33
			c24.13,0,40.9,16.66,40.9,40.9c0,24.24-17.12,42.62-40.9,42.62H848.67z M869.01,774.53c15.4,0,26.31-11.6,26.31-27.34
			c0-15.74-10.92-27-26.31-27h-20.33c-14.93,0-25.97,11.14-25.97,27c0,15.74,10.91,27.34,25.97,27.34H869.01z"/>
		<path class="st0" d="M946.89,765.92v-14.13h33.55c10.22,0,16.31-6.43,16.31-15.85c0-9.65-6.09-15.74-16.31-15.74h-44.23v68.93
			h-14.47V705.6h58.71c19.3,0,30.56,11.6,30.56,29.87c0,18.04-11.26,30.45-30.56,30.45H946.89z"/>
	</g>
	<g>
		<path class="st0" d="M418.07,641.5L418.07,641.5l0-152.82c0-79.69,64.6-144.29,144.29-144.29h0v152.82
			C562.36,576.9,497.76,641.5,418.07,641.5z"/>
		<path class="st0" d="M643.95,488.68L643.95,488.68c-39.68,0-71.84-32.16-71.84-71.84v0c0-39.68,32.16-71.84,71.84-71.84h0
			c39.68,0,71.84,32.16,71.84,71.84v0C715.79,456.52,683.62,488.68,643.95,488.68z"/>
		<path class="st0" d="M643.95,642.11H572.1v-71.84c0-39.68,32.16-71.84,71.84-71.84h0c39.68,0,71.84,32.16,71.84,71.84v0
			C715.79,609.94,683.62,642.11,643.95,642.11z"/>
	</g>
</g>
</svg>
