<?xml version="1.0" encoding="utf-8"?>
<svg version="1.1" xmlns="http://www.w3.org/2000/svg" xmlns:xlink="http://www.w3.org/1999/xlink" x="0px" y="0px"
	 viewBox="120 520 895 95" xml:space="preserve">
<style type="text/css">
	.st0{fill:#FFFFFF;}
</style>
<g>
	<path class="st0" d="M126.8,608.54v-83.21h14.48v83.21H126.8z M193.48,608.54v-36.02h-41.72v-12.88h41.72v-34.31h14.48v83.21H193.48z"/>
	<path class="st0" d="M260.62,608.19v-31.46l-44-51.41h19.49l32.26,38.19l32.37-38.19h18.47l-44.11,51.41v31.46H260.62z"/>
	<path class="st0" d="M352.83,585.17v-14.02h33.29c10.15,0,16.19-6.38,16.19-15.73c0-9.58-6.04-15.62-16.19-15.62h-43.89v68.39h-14.36v-82.87
		h58.25c19.15,0,30.32,11.51,30.32,29.64c0,17.9-11.17,30.21-30.32,30.21H352.83z"/>
	<path class="st0" d="M426.69,608.19v-82.87h73.98v14.48h-59.62v53.92h59.73v14.48H426.69z M451.65,572.17v-12.2h45.94v12.2H451.65z"/>
	<path class="st0" d="M590.14,608.19l-20.97-23.03h-31.01V572.4h34.54c10.37,0,15.85-5.93,15.85-16.64c0-10.71-5.93-15.96-15.85-15.96h-45.14
		v68.39H513.2v-82.87h59.5c18.92,0,30.09,11.74,30.09,30.21c0,13.68-6.38,23.37-17.1,27.47l24.96,25.19H590.14z"/>
	<path class="st0" d="M618.18,608.19v-82.87h14.48v68.39h55.74v14.48H618.18z"/>
	<path class="st0" d="M736.61,608.19c-23.14,0-40.24-18.24-40.24-42.29c0-24.39,17.1-40.58,40.24-40.58h20.18c23.94,0,40.58,16.53,40.58,40.58
		c0,24.05-16.98,42.29-40.58,42.29H736.61z M756.78,593.72c15.27,0,26.11-11.51,26.11-27.13c0-15.62-10.83-26.79-26.11-26.79h-20.18
		c-14.82,0-25.76,11.06-25.76,26.79c0,15.62,10.83,27.13,25.76,27.13H756.78z"/>
	<path class="st0" d="M846.94,608.19c-23.14,0-40.24-18.24-40.24-42.29c0-24.39,17.1-40.58,40.24-40.58h20.18c23.94,0,40.58,16.53,40.58,40.58
		c0,24.05-16.98,42.29-40.58,42.29H846.94z M867.12,593.72c15.27,0,26.11-11.51,26.11-27.13c0-15.62-10.83-26.79-26.11-26.79h-20.18
		c-14.82,0-25.76,11.06-25.76,26.79c0,15.62,10.83,27.13,25.76,27.13H867.12z"/>
	<path class="st0" d="M944.39,585.17v-14.02h33.29c10.14,0,16.19-6.38,16.19-15.73c0-9.58-6.04-15.62-16.19-15.62h-43.89v68.39h-14.36v-82.87
		h58.25c19.15,0,30.32,11.51,30.32,29.64c0,17.9-11.17,30.21-30.32,30.21H944.39z"/>
</g>
</svg>
