<?xml version="1.0" encoding="utf-8"?>
<!-- Generator: Adobe Illustrator 24.0.1, SVG Export Plug-In . SVG Version: 6.00 Build 0)  -->
<svg version="1.1" id="图层_1" xmlns="http://www.w3.org/2000/svg" xmlns:xlink="http://www.w3.org/1999/xlink" x="0px" y="0px"
	 viewBox="266 266 602 602" xml:space="preserve">
<style type="text/css">
	.st0{fill:#FFFFFF;}
</style>
<g>
	<path d="M281.67,851.14L281.67,851.14l0-292.84c0-152.71,123.8-276.51,276.51-276.51h0v292.84
		C558.18,727.34,434.38,851.14,281.67,851.14z" fill="#000000"/>
	<path d="M714.52,558.29L714.52,558.29c-76.03,0-137.67-61.64-137.67-137.67v0c0-76.03,61.64-137.67,137.67-137.67h0
		c76.03,0,137.67,61.64,137.67,137.67v0C852.19,496.66,790.55,558.29,714.52,558.29z" fill="#000000"/>
	<path d="M714.52,852.3H576.85V714.63c0-76.03,61.64-137.67,137.67-137.67h0c76.03,0,137.67,61.64,137.67,137.67v0
		C852.19,790.67,790.55,852.3,714.52,852.3z" fill="#000000"/>
</g>
</svg>
